<svg id="Layer_1" data-name="Layer 1" xmlns="http://www.w3.org/2000/svg" viewBox="0 0 260.2 260.2"><defs><style>.cls-1{fill:#fff;}</style></defs><title>SuperHi_GR_Icon</title><path class="cls-1" d="M248.82,0H11.38A11.12,11.12,0,0,0,0,11.38V250.44c0,4.88,4.88,9.76,11.38,9.76H130.1V178.89H97.57V130.1H130.1V97.57c0-34.15,19.51-48.78,48.79-48.78h32.52V97.57H195.15c-9.76,0-16.26,6.51-16.26,16.27V130.1h42.28l-9.76,48.79H178.89V260.2h69.93a11.12,11.12,0,0,0,11.38-11.38V11.38A11.12,11.12,0,0,0,248.82,0Z"/></svg>