<svg id="Layer_1" data-name="Layer 1" xmlns="http://www.w3.org/2000/svg" viewBox="0 0 260.2 260.2"><defs><style>.cls-1{fill:#fff;}</style></defs><title>SuperHi_GR_Icon</title><circle class="cls-1" cx="195.15" cy="63.29" r="15.61" transform="translate(-7.62 32.08) rotate(-9.22)"/><path class="cls-1" d="M130.1,97.57a32.53,32.53,0,1,0,32.52,32.53A32.56,32.56,0,0,0,130.1,97.57Zm0,97.58a65.05,65.05,0,1,1,65.05-65.05A65.12,65.12,0,0,1,130.1,195.15Z"/><path class="cls-1" d="M65.05,32.52c-15.21,0-32.53,17.32-32.53,32.53v130.1c0,15.5,17,32.52,32.53,32.52h130.1c15.2,0,32.52-17.32,32.52-32.52V65.05c0-15.21-17.32-32.53-32.52-32.53ZM195.15,260.2H65.05c-33.44,0-65-31.62-65-65V65.05C0,31.61,31.61,0,65.05,0h130.1c33.43,0,65,31.61,65,65.05v130.1C260.2,228.58,228.58,260.2,195.15,260.2Z"/></svg>