<svg id="Layer_1" data-name="Layer 1" xmlns="http://www.w3.org/2000/svg" viewBox="0 0 201.48 268.91"><defs><style>.cls-1{fill:#fff;}</style></defs><title>SuperHi_GR_Icon</title><path class="cls-1" d="M197.12,102a25.7,25.7,0,0,0-35.47-7.15A25.7,25.7,0,0,0,135,84.18l9.15-45.94C147.5,21.6,137.54,4.83,122,.87A27.46,27.46,0,0,0,100.4,4.3,30.82,30.82,0,0,0,86.87,24.38L72.41,92.45,58,24.48A30.92,30.92,0,0,0,44.43,4.3,27.45,27.45,0,0,0,22.83.87C7.28,4.83-2.67,21.6.63,38.25l20.92,104.9a25.85,25.85,0,0,0-17,24.33h0v4.62A97,97,0,0,0,101,268.91h.35a95.76,95.76,0,0,0,68-28.29,97.15,97.15,0,0,0,28.87-69.23l-.05-35.31L201,121.26A25.58,25.58,0,0,0,197.12,102Zm-19.37,4.23a10.28,10.28,0,0,1,8.11,12.08l-8.39,42.52a10.2,10.2,0,0,1-3.12,5.56,25.51,25.51,0,0,0-7.4-17.07,25.79,25.79,0,0,0-7.16-5.13l5.88-29.86A10.3,10.3,0,0,1,177.75,106.19Zm-43-5.41a10.28,10.28,0,0,1,15.82,10.53l-6,30.32h-21l.82-4.15,6.22-31.24A10.26,10.26,0,0,1,134.72,100.78Zm-108.08-85a12.18,12.18,0,0,1,9.56,1.54,15.5,15.5,0,0,1,6.67,10.23l22,103.6a7.71,7.71,0,0,0,15.09,0l22-103.7a15.48,15.48,0,0,1,6.66-10.13,12.14,12.14,0,0,1,9.56-1.54c7.73,2,12.61,10.69,10.88,19.42l-13.44,67.41c-.15.56-.29,1.13-.4,1.7L109.39,134l-1.53,7.66H37L15.76,35.24C14,26.5,18.9,17.78,26.64,15.81ZM158.36,229.69A80.33,80.33,0,0,1,101,253.48,81.54,81.54,0,0,1,19.92,172.1v-4.62h-7.7l7.7,0a10.38,10.38,0,0,1,10.38-10.4H148.66a10.28,10.28,0,0,1,10.28,10.42,10.45,10.45,0,0,1-10.55,10.15H89.33a7.71,7.71,0,0,0-.19,15.42h.69A28,28,0,0,1,117.76,221h15.42A43.18,43.18,0,0,0,123,193.05h25.42a26.07,26.07,0,0,0,19.28-8.54,25.54,25.54,0,0,0,14-4.36l.58-.41A81.92,81.92,0,0,1,158.36,229.69Z"/></svg>