<svg id="Layer_1" data-name="Layer 1" xmlns="http://www.w3.org/2000/svg" viewBox="0 0 261.51 261.51"><defs><style>.cls-1{fill:#fff;}</style></defs><title>SuperHi_GR_Icon</title><path class="cls-1" d="M97.5,39.05A58.45,58.45,0,1,0,155.94,97.5,58.52,58.52,0,0,0,97.5,39.05Zm0,101.47a43,43,0,1,1,43-43A43.07,43.07,0,0,1,97.5,140.52Z"/><path class="cls-1" d="M259.25,222.81l-77.06-77.06a97.54,97.54,0,1,0-36.44,36.44l77.06,77.06a7.7,7.7,0,0,0,10.9,0l25.54-25.54A7.71,7.71,0,0,0,259.25,222.81ZM15.42,97.5A82.08,82.08,0,1,1,97.5,179.57,82.17,82.17,0,0,1,15.42,97.5ZM228.26,242.89,158.7,173.33a98.23,98.23,0,0,0,14.63-14.63l69.56,69.56Z"/></svg>