<svg id="Layer_1" data-name="Layer 1" xmlns="http://www.w3.org/2000/svg" viewBox="0 0 260.2 260.2"><defs><style>.cls-1{fill:#fff;}</style></defs><title>SuperHi_GR_Icon</title><path class="cls-1" d="M206.53,115.46C164.25,91.07,96,87.82,55.29,100.83c-6.5,1.62-13-1.63-14.63-8.13s1.62-13,8.13-14.64c45.53-13,122-11.38,170.75,17.89,6.51,3.25,8.13,11.38,4.88,16.26S213,118.72,206.53,115.46Zm-1.62,37.41c-3.26,4.88-9.76,6.5-13,3.25C156.12,135,104.08,128.47,61.8,141.48c-4.88,0-9.76-1.62-11.39-8.13-1.62-4.88,1.63-9.76,6.51-11.38,47.16-14.64,105.7-6.51,146.36,17.89C206.53,141.48,208.16,148,204.91,152.87Zm-14.64,35.77c-3.25,3.26-6.5,4.88-11.38,3.26-30.9-19.52-68.31-22.77-113.84-13-4.88,1.62-8.13-1.63-9.76-6.51s1.63-8.13,6.51-9.76c48.78-11.38,92.69-6.5,126.84,14.64C191.9,178.89,191.9,183.77,190.27,188.64ZM130.1,0C58.54,0,0,58.54,0,130.1S58.54,260.2,130.1,260.2s130.1-58.55,130.1-130.1S201.65,0,130.1,0Z"/></svg>