<svg id="Layer_1" data-name="Layer 1" xmlns="http://www.w3.org/2000/svg" viewBox="0 0 260.2 211.41"><defs><style>.cls-1{fill:#fff;}</style></defs><title>SuperHi_GR_Icon</title><path class="cls-1" d="M260.2,24.39c-9.76,4.88-19.52,6.51-30.9,8.13,11.38-6.5,19.52-16.26,22.77-29.27-9.76,6.51-21.14,9.76-34.15,13A56.84,56.84,0,0,0,178.89,0c-27.65,0-52,24.39-52,53.67,0,4.87,0,8.13,1.62,11.38C84.56,63.42,43.91,42.28,17.89,9.76,13,17.89,11.38,26,11.38,37.4c0,17.89,9.76,34.15,24.4,43.91-8.13,0-16.27-3.25-24.4-6.5h0a52.5,52.5,0,0,0,42.29,52c-4.88,1.62-9.76,1.62-14.64,1.62-3.25,0-6.51,0-9.76-1.62a52.7,52.7,0,0,0,50.42,37.4C61.8,178.89,39,187,13,187H0c24.39,14.63,52,24.39,81.31,24.39,97.58,0,151.24-81.31,151.24-151.24v-6.5C243.94,45.53,253.69,35.78,260.2,24.39Z"/></svg>