<svg id="Layer_1" data-name="Layer 1" xmlns="http://www.w3.org/2000/svg" viewBox="0 0 1000 1000"><defs><style>.cls-1{fill:#fff;}</style></defs><title>SuperHi_Groovebox Records_Logo_AW</title><path class="cls-1" d="M501,1000.24c-275.7,0-500-224.3-500-500S225.3.24,501,.24s500,224.3,500,500S776.7,1000.24,501,1000.24Zm0-970.88c-259.64,0-470.88,211.23-470.88,470.88S241.36,971.12,501,971.12,971.88,759.88,971.88,500.24,760.64,29.36,501,29.36Z"/><path class="cls-1" d="M501,588.11a87.87,87.87,0,1,1,87.87-87.87A88,88,0,0,1,501,588.11Zm0-146.62a58.75,58.75,0,1,0,58.75,58.75A58.82,58.82,0,0,0,501,441.49Z"/><path class="cls-1" d="M497.28,939.42c-16.42,0-32.79-3.94-46.74-14.49-13.77-10.42-21.06-26.64-23.12-43.67-4.06-33.57,16.31-69.54,26.2-100.85,11.33-35.84,24-71.15,36.61-106.51,9.62-27,28.23-67.53,64.61-55,28.93,10,36.36,47.15,41.71,72.61,8,37.89,7.27,78,5.38,116.5C598.52,877.2,578.33,939.42,497.28,939.42Zm60.85-187c-.24-4.71-1.45-64.84-25-48.58-14.91,10.28-25.74,71.4-29,88.68-3.68,19.48-1.92,52.31,26.76,37.29C554.39,817.49,559.47,779.25,558.13,752.42Z"/><path class="cls-1" d="M945.29,503.64c-5,18-14.5,9.57-29.43,15.09-22.05,8.15-8.75,17-23.2,32.18-4.77,5-23.55,12.37-30,6.94-6.13-5.19-3.28-12.18,0-19.17a4.49,4.49,0,0,0-6-5.94c-23.07,11.27-76.63,48.67-77.89,26-.45-8,30.07-29.87,37.84-34.87,17.21-11.08,43.7-10,57.45-25.86,11.49-13.26,15.58-47.66,22.06-64.1,2.64-6.69,13-42.36,22.15-44,12.54-2.25,18.11,23.13,18.06,31.72-.08,15.66-9.41,29.58-15.94,43.88a6.41,6.41,0,0,0,8.43,8.5c4.65-2.06,9-3.69,11.16-2.57C947.74,475.47,945.29,495.68,945.29,503.64Z"/><path class="cls-1" d="M308.37,563.47c42.95-13.62,32,76.34-1.22,85.36-17.52,4.77-37.08-6.2-53.53-2.32-11.52,2.71-22.83,25.08-13.65,35.67,16.74,19.31,84.31-19.56,73.75,24-4.27,17.64-22.19,38.41-32.38,53.05-12.85,18.47-27.61,35.45-45.4,49.41-36.05,28.27-74.63-17.45-85.88-52.28-7.64-23.66,13.8-47.57,22.67-69.2,11-26.81,16.12-55.46,19.39-84.13,2.89-25.35,4.24-50.87,6.26-76.3,1.4-17.76-2.78-49.66,11.44-62.88,21.65-20.15,86.26-27.05,111-10.07,16.82,11.54,24.7,48.82,18.33,67.85-7.46,22.27-38.65,9.55-56.63,6.81-12.34-1.88-18.14-5.79-23.55,6.15-1.94,4.26-2.8,21-.21,25.31C266.5,572.64,296.68,567.18,308.37,563.47Z"/><path class="cls-1" d="M665.73,303.3c20.1-24.57,41.08-48.31,60.93-73.11,9.15-11.44,19-22.39,27.57-34.25,6.39-8.8,12.3-21.28,22.61-26.07,23.08-10.74,43.35,30.49,51,46.78,11.48,24.46,17.36,63.48-6.87,82.23-10.24,7.93-23.67,12.11-36.37,13.75-9.93,1.29-28-3.31-36,3.48-15,12.75-1.77,55.82-4.28,72.64C734.4,455,654.65,473.25,609.14,431c-10.28-9.55-24.23-23.28-24.62-38.26-.39-14.48,11.54-23.63,21.51-32.36C626.65,342.3,648.3,324.61,665.73,303.3Zm-18.16,77.43c-11.88,13.53,12,19.78,21.21,18.45C683.49,397,688.2,385,689.69,371.85c.79-7.05,3.69-31.33-8.46-29.8C672.07,343.2,653.57,373.9,647.57,380.73Zm138-148.84c-9.55-16.67-24.23,8-29.55,15.14-7.63,10.26-20.3,17-5.71,24.8C776,285.58,798.83,255.09,785.56,231.89Z"/><path class="cls-1" d="M412.48,698c-5-5.42-13.28-6.62-19.27-2.29C376,708.19,366.64,747.45,359.7,768c-31.4,93,27.23,14.74,45.57,63.17,29.78,78.64-178.85,111-130-12.74,16.76-42.46,48.46-79.27,63-126.54,9-29.38,13.78-88.92,42.37-105.34,33.24-19.09,41.49,7.81,59.14,33.35,13.86,20.05,25.85,19.28,22.33,47.38C458.68,694.51,433.27,720.46,412.48,698Z"/><path class="cls-1" d="M870.2,291.8c31.33-.12,37.07,42,33.22,63.51-7.9,44.18-26.68,76.37-54.32,111.28-20,25.2-47.19,53.27-76.13,67.92-29.55,15-78.63,25.34-107.65,2.71-22.91-17.87-.61-41.47,14.94-55.7,29-26.58,56.72-50.07,80.58-82,23.52-31.46,44.81-65.92,76.31-90.26C840.46,306.73,856.33,292.78,870.2,291.8ZM791.78,428.74c-1.39,1.75-52.08,39.29-26.39,51.08,19,8.71,47.41-30.92,57.19-43.56,6.09-7.87,34.22-44.65,15-45.32C825.2,390.51,800.62,420.88,791.78,428.74Z"/><path class="cls-1" d="M453.07,219c.25,10.31.81,20.59,1.62,30.87C458.55,299,462.53,392.39,416.11,397c-34.66,3.42-43.56-50.66-51.81-74.71-11.78-34.3-17.74-69.54-20.76-105.59C341,185.9,350,55.24,401.81,69.42c25.07,6.85,28.86,39.08,34.54,60.54C443.68,157.64,452.33,189.44,453.07,219Zm-42.94-37.41c-3.8-11.79-20.83-10.9-23.31,1.24-6.14,30-6.84,75.25,8,82.83C422.9,279.9,421.86,218,410.13,181.55Z"/><path class="cls-1" d="M665.52,893.63c-3.12,1.74-28.33,12.38-37.83,6-14.62-9.86-5.15-35-3.77-49.49,3.16-33,6.4-68.53,5.23-101.67-1.27-35.85-7.16-69.78-16.94-104.1-3.88-13.62-12.87-28-11.59-42.46,1.77-19.8,21.12-17,36.31-15,44.22,5.86,72.84,33.16,79.85,74.15,1.92,11.22-1.66,27.38-6.33,37.71-7,15.56-23.86,23.75-22.81,42.54,1.54,27.62,38.37,45.23,55.45,63.15,25.12,26.34,3.86,47.34-21.35,59.86-16.25,8.07-22.62-11.7-29.31-24.61-5.87-11.33-9.84-24-15.12-35.73-2.24-5-9.74-3.43-9.7,2,.13,13.91,7.4,31,9.72,41.76C681.61,867.65,683.39,883.68,665.52,893.63ZM656,674.53a7.12,7.12,0,0,0,12.4,2.11c10.67-14,11.59-35.29-11-38.32-16.19-2.17-10.87,6.85-7.51,17.69C650.61,658.52,653.51,667.07,656,674.53Z"/><path class="cls-1" d="M724.72,122.13c12.82,5.87,15.77,8.87,17.77,12.31,7.16,12.31-1.75,30.22-8.49,40.72-4,6.16-11.16,18.31-17,22.67-8.76,6.54-9.53,3.28-17.16-.64-13-6.68-29.83-28.19-45.74-16.48-20,14.69,10.3,27.94,20.43,34.1,20.14,12.24,12,24.4.69,40.56-12,17.05-19.61,20.78-36.82,8.14-17-12.5-27-16.86-37.84,4.18-4.2,8.18-7.56,16.77-11.79,24.94-2,3.92-12.61,16.95-12.36,21.73.72,14.19,33.47,5.28,22.2,24.92-4,6.93-17.23,12.83-23,18.75-4.59,4.71-6.78,12.19-10.17,16.1-7.87,9.07-34.39,5.85-45.22,2.74-19.73-5.68-6.85-21.54.06-33.62,9.43-16.51,18-33.43,26.51-50.39,18-35.74,34.55-73,54.33-107.68,10.85-19,22.79-37.37,32.94-56.83,7-13.52,15.5-34.63,34.6-30.07C676.9,100.24,721,120.44,724.72,122.13Z"/><path class="cls-1" d="M509.1,217c8.64-9.95,13.32-28.29,18.71-40.31,8.22-18.33,17-36.43,25.93-54.43,5.91-11.9,13.8-33.84,23.9-42.66,9.57-8.36,27.43-5.22,39.64-2,18.36,4.82,19.31,11.56,9.22,26.33-11.73,17.17-23.91,34.14-35.49,51.5-21.58,32.35-36.44,68.49-52.53,103.8-15,32.89-18.11,36.69-33.05,78.72C499.79,353.86,474,376.83,474.74,323c1-76.21-8.87-151.73-17.29-227.27-.79-7-4.21-23.89.88-29.62,6-6.81,16.48-3.8,24.8-3.85,8.81,0,22.92-3.53,31,1.37,8.76,5.34,6,10.33,4.35,20.51-3.61,22.39-8.08,44.53-9.45,67.24C508.55,158.88,504.72,215.61,509.1,217Z"/><path class="cls-1" d="M248.32,260.18c-2.39-22.09-22.62-155.27,29.25-138.13,19.8,6.55,34.18,46.55,40.46,64.71,10.27,29.69,13.3,62,21.46,92.38,7.18,26.73,38.16,124.72-23.89,111.27C265.05,379.45,248.11,260.21,248.32,260.18Zm44.27-44.38c-3.81-8.11-15.79-6.43-17.27,2.41-5.72,34.12.86,99.4,28.15,80.16,17-12,7-37.25,1-51.61C302.11,241.16,297.81,226.92,292.59,215.8Z"/><path class="cls-1" d="M177.07,401.13c-2.3-11-4-22.22-6.62-33.08-2.24-9.29-3.3-18.1-7.08-26.81-4.17-9.63-9-18.94-13.05-28.57-8.31-19.6-22.69-39.42-13.7-60.92,7.73-18.5,21.49-36.36,36.57-49.54,17.34-15.16,41.23-15.75,48.7,9.68,5.29,18,1.26,39.3-3.65,56.85-2.78,10-8,20.68-5.85,31.18,2.41,11.8,10.75,23.8,17.82,33.26,12.71,17,25.46,33.84,38.54,50.58,5.61,7.18,18.84,19.7,9.3,28.66-5.8,5.45-26,8.43-33.66,5.83-10.06-3.43-13.83-17.18-17-26.08a87.94,87.94,0,0,0-10.37-21c-3.77-5.41-12.25-1.3-10.43,5,2.18,7.57,5.59,15.44,6.81,18.86,2.95,8.28,12,20.18,8.1,27.2-4.41,8-14.64,13.74-23.3,15.35-5.58,1-9.65,1.31-13.43-5.19C182.05,427.86,178.69,409,177.07,401.13Zm-6.84-121.27a7.37,7.37,0,0,0,12,1.46c5.5-6.25,6.77-16.82,7.81-25.26.58-4.75,2.27-15-2.8-18.08-3.47-2.13-7.61.87-10.35,4.45a48.58,48.58,0,0,1-6.77,7.27C161.39,257.24,165.11,270.14,170.23,279.86ZM256.65,396.6"/><path class="cls-1" d="M128.67,487.06c18.93-8.78,43.35-12.56,56.69,8.16,12.62,19.61-2.33,33.62-17.23,45.09-19.82,15.26-28.75,30.28-25.43,56.12,1.65,12.9,5.6,25.6,8.46,38.28,2.79,12.37,9.58,24.8,10.63,37.4,2,24.64-22.7,35.1-43.45,29.92-22.18-5.54-34.82-27.36-32.17-49.9,2.63-22.31,13.89-43.56,16.13-65.83.78-7.78-2.26-11.88-8.56-5.49-6.9,7-9.1,22-22.44,19.81-11-1.78-14.12-15.51-12-24.52,2.85-11.89,13.14-22.77,18.56-33.65,5.53-11.11,9.5-23.2,17.22-33.11C102.61,499.72,117.8,492.11,128.67,487.06ZM113,530.19c-4,8.94,16,.38,18-.54,3.83-1.7,13.72-5.43,14-10.72.31-6.85-9.16-6.58-13.69-5.81C121.1,514.86,116.93,521.21,113,530.19Z"/><path class="cls-1" d="M735.35,596.31c22.65-3.19,48.18,9.41,65.83,23.35,9.87,7.8,17.67,18.77,23.59,30.51a130,130,0,0,1,12.59,41.41c1.71,12.7,3.81,33.7-.1,51.35-3.7,16.74-23.62,91.61-53.37,69.41-10.67-8-13-37.33-16.3-48.72-6.6-23-13.79-45.81-21-68.6-7.43-23.38-15.7-46.39-23.76-69.55C720,617.53,713.62,597.53,735.35,596.31ZM783.27,708.5c14.92,12.77,24.06-13.79,18.29-29-3.32-8.74-11.59-25.08-22.42-25.61C755.23,652.78,774.39,700.9,783.27,708.5Z"/><path class="cls-1" d="M106.79,407.56A44.47,44.47,0,0,1,111.74,385c6.57-12.92,13.88-24,23.78-32.8,19.22-17.15,26.32,26.12,28.29,38,3.6,21.84,9.34,47.36-10.13,63.8-8.16,6.9-21.21,10.29-30.7,15.6-5.45,3.06-20.8,10.83-33.86,5.8C38.7,456.06,63.85,390.18,77,350.69c4.85-14.54,11.11-48.58,32-43.66,10,2.36,15.11,12.83,17,22.41,2.5,12.54-3,20.47-9,31.06-6.72,11.91-17.7,25.41-20.59,39-1.72,8,.16,27.45,7.92,32,5,2.93,7.2,0,12.15-3.92,2.84-2.28,10.37-7.69,6.1-12.11-3.37-3.48-9.23.58-13.29-1.92C107.39,412.41,106.93,410.14,106.79,407.56Z"/><path class="cls-1" d="M884.48,694.12c-24.55,21.37-48.15-9.24-29.14-18.83,8.2-4.14,27.84-11.56,22.91-25.09-2.81-7.69-18-8.19-30.24-13.85-21.18-9.8-25.33-42.88-1.57-54.11,10.38-4.9,37.48-12.34,48.65-7.87a9.5,9.5,0,0,1,3.14,2.26,12.24,12.24,0,0,1-6.82,20.61c-11.11,1.83-25.1.19-25.48,7.82-.54,11,14.77,8.59,20.41,8.68,11.76.17,16.82.89,23.9,7.52C941.88,650.91,892.94,686.76,884.48,694.12Z"/></svg>